<?xml version="1.0" encoding="UTF-8" standalone="no"?>
<svg
   width="351.10001"
   height="351.10001"
   fill="none"
   version="1.1"
   viewBox="0 0 351.10001 351.10001"
   id="svg2819"
   xmlns="http://www.w3.org/2000/svg"
   xmlns:svg="http://www.w3.org/2000/svg"
   xmlns:rdf="http://www.w3.org/1999/02/22-rdf-syntax-ns#"
   xmlns:cc="http://creativecommons.org/ns#"
   xmlns:dc="http://purl.org/dc/elements/1.1/">
  <defs
     id="defs2823">
	
	
	
	
	
	
	
	
	
	
	
	
	
	
	

		
	
		
	
		
	
		
	
		
	
		
	
		
	
		
	
		
	
			
				
		
			
		
			
		
			
				
		
			
				
		
			
				
		
			
		
			
				
		
			
				
		</defs>
  <title
     id="title2813">TypeScript logo</title>
  <metadata
     id="metadata2825">
    <rdf:RDF>
      <cc:Work
         rdf:about="">
        <dc:title>TypeScript logo</dc:title>
      </cc:Work>
    </rdf:RDF>
  </metadata>
  <g
     id="g1762"
     transform="translate(6272.2435,2001.5862)"
     style="fill:#ffffff">
    <path
       id="path1646"
       style="fill:#ffffff;stroke-width:0.306959"
       d="m -6096.7422,-2001.582 c -3.6912,-0.019 -7.1753,0.028 -8.664,0.1504 -0.6753,0.031 -3.2221,0.2454 -5.6778,0.4296 -30.6959,2.2715 -61.8219,13.628 -87.3301,31.8614 -8.4414,6.0164 -15.1028,11.6653 -22.5312,19.0937 -42.698,42.7287 -60.2863,103.8749 -46.9336,163.2715 5.4639,24.3725 17.127,48.8967 32.5977,68.6035 24.2803,30.9722 57.5566,52.7976 94.8828,62.252 15.1945,3.8677 27.809,5.4336 43.7402,5.4336 15.7162,0 27.2899,-1.4117 42.2695,-5.0645 21.5178,-5.2797 40.4253,-13.9673 59.334,-27.1972 18.1105,-12.7081 34.9625,-30.5124 47.0567,-49.6973 15.5935,-24.8023 24.4651,-52.1831 26.6445,-82.2344 0.4604,-6.3233 0.185,-21.9777 -0.4903,-28.4238 -1.3505,-12.8002 -4.7899,-29.6828 -6.7851,-33.2129 -0.7981,-1.3813 -3.0377,-3.1608 -4.6953,-3.7441 -0.5832,-0.1841 -1.8723,-0.3379 -2.916,-0.3379 -4.6044,0 -8.4727,3.8373 -8.4727,8.3496 0,1.0743 0.4913,3.652 1.1973,6.4453 6.0778,23.6359 6.5684,49.6055 1.3808,73.3027 -6.6303,30.3583 -21.4262,57.1248 -43.7422,79.0723 -10.4059,10.2218 -20.4433,17.7728 -33.4277,25.2012 -30.2968,17.3431 -67.96,23.9111 -103.291,18.0175 -26.8282,-4.4509 -50.1261,-14.7639 -72.2578,-31.9843 -10.4059,-8.1037 -23.0832,-21.4556 -30.9414,-32.6289 -13.5676,-19.277 -22.1013,-39.5981 -26.5215,-63.2032 -2.2408,-12.0328 -3.0085,-27.996 -1.9648,-40.9804 1.5961,-19.7067 6.538,-38.0006 14.9179,-55.3438 3.8677,-8.073 6.2614,-12.2781 10.8965,-19.2461 9.4543,-14.3043 21.9784,-27.6878 35.8223,-38.3086 16.2381,-12.4932 35.5159,-21.9787 55.0078,-27.0742 10.5287,-2.7627 18.9389,-4.1428 29.6211,-4.9102 38.6461,-2.7626 76.2184,8.3483 106.8222,31.6465 2.2715,1.7189 4.666,3.5907 5.3106,4.1739 l 1.166,1.0136 -0.4609,1.2891 c -2.3636,6.6303 -0.6134,14.8874 4.3593,20.6582 2.5478,2.9469 7.1524,5.71 11.0508,6.6309 2.6706,0.6446 7.3046,0.6446 10.0059,0 6.8452,-1.6269 13.2299,-7.4905 15.2558,-13.9981 2.2715,-7.2749 0.953,-14.4568 -3.7129,-20.2891 -5.1568,-6.4461 -14.0288,-9.3322 -22.2246,-7.1835 l -1.7793,0.4609 -2.5175,-2.0879 c -10.2217,-8.5641 -22.5924,-16.4828 -35.6075,-22.7754 -21.1187,-10.2218 -42.3305,-15.716 -66.4882,-17.1894 -2.3175,-0.1382 -6.2151,-0.2231 -9.9063,-0.2422 z m -20.9726,85.8828 -5.8633,15.2558 c -3.2538,8.4107 -10.313,26.8286 -15.7461,40.918 -5.4332,14.0894 -16.5757,43.0363 -24.7715,64.3086 -8.1651,21.2723 -14.9503,38.7678 -15.0117,38.8906 -0.092,0.1535 8.5329,0.2461 19.123,0.2461 h 19.3086 l 1.1367,-3.1621 c 0.6446,-1.719 2.9152,-7.7964 5.0332,-13.5058 l 3.8672,-10.3438 h 28.9766 c 23.0833,0 28.9787,-0.093 28.8867,-0.4004 -0.307,-0.8288 -5.0357,-14.3352 -7.5527,-21.5488 l -2.7012,-7.6738 -19.1836,-0.1524 -19.1543,-0.1543 12.461,-34.3476 c 7.4898,-20.6277 12.5563,-34.1352 12.6484,-33.8282 0.1228,0.2763 5.0944,14.4281 11.0801,31.4336 5.9857,17.0055 15.8694,45.0003 21.9472,62.2207 l 11.0196,31.3086 19.2168,0.092 c 10.5594,0.031 19.2148,5e-4 19.2148,-0.061 0,-0.061 -2.4851,-6.5994 -5.5547,-14.4883 -3.0696,-7.9195 -9.6386,-24.9559 -14.6113,-37.8789 -4.9728,-12.923 -10.5592,-27.4112 -12.4317,-32.2305 -1.8417,-4.8193 -5.065,-13.1678 -7.1523,-18.5703 -2.0873,-5.4025 -7.5206,-19.5548 -12.125,-31.4648 -4.6044,-11.91 -8.6252,-22.3755 -8.9629,-23.2657 l -0.584,-1.5976 z" />
  </g>
</svg>
