<?xml version="1.0" encoding="UTF-8" standalone="no"?>
<svg
   viewBox="0 0 57.8315 57.8315"
   version="1.1"
   id="svg6354"
   sodipodi:docname="cypress.svg"
   width="57.831501"
   height="57.831501"
   inkscape:version="1.1.1 (3bf5ae0d25, 2021-09-20, custom)"
   xmlns:inkscape="http://www.inkscape.org/namespaces/inkscape"
   xmlns:sodipodi="http://sodipodi.sourceforge.net/DTD/sodipodi-0.dtd"
   xmlns="http://www.w3.org/2000/svg"
   xmlns:svg="http://www.w3.org/2000/svg"
   xmlns:rdf="http://www.w3.org/1999/02/22-rdf-syntax-ns#"
   xmlns:cc="http://creativecommons.org/ns#"
   xmlns:dc="http://purl.org/dc/elements/1.1/">
  <defs
     id="defs6358" />
  <sodipodi:namedview
     id="namedview6356"
     pagecolor="#ffffff"
     bordercolor="#666666"
     borderopacity="1.0"
     inkscape:pageshadow="2"
     inkscape:pageopacity="0.0"
     inkscape:pagecheckerboard="0"
     showgrid="false"
     fit-margin-top="0"
     fit-margin-left="0"
     fit-margin-right="0"
     fit-margin-bottom="0"
     inkscape:zoom="26.40625"
     inkscape:cx="19.351479"
     inkscape:cy="11.228402"
     inkscape:window-width="1920"
     inkscape:window-height="1048"
     inkscape:window-x="0"
     inkscape:window-y="32"
     inkscape:window-maximized="1"
     inkscape:current-layer="svg6354" />
  <title
     id="title6341">file_type_cypress</title>
  <metadata
     id="metadata6360">
    <rdf:RDF>
      <cc:Work
         rdf:about="">
        <dc:title>file_type_cypress</dc:title>
      </cc:Work>
    </rdf:RDF>
  </metadata>
  <g
     id="g6808"
     transform="matrix(2.9430527,0,0,2.9430527,12.977985,-39.598641)"
     style="fill:#ffffff">
    <path
       id="_Path_4"
       data-name="&lt;Path&gt;"
       d="m 11.699472,28.564129 a 6.555,6.555 0 0 1 -2.088,3.222 6.827,6.827 0 0 1 -3.812,1.319001 l -0.318,-2.088001 a 5.141,5.141 0 0 0 2.314,-0.726 5.873,5.873 0 0 0 0.545,-0.545 v 0 l -3.765,-12.073 h 3.131 l 2.179,9.032 2.314,-9.032 h 3.041 z"
       style="fill:#ffffff" />
    <path
       id="_Path_5"
       data-name="&lt;Path&gt;"
       d="m 0.763472,17.264129 a 5.18,5.18 0 0 1 1.951,0.318 5.865,5.865 0 0 1 1.679,1 l -1.27,1.723 a 4.977,4.977 0 0 0 -1.044,-0.59 2.893,2.893 0 0 0 -1.089,-0.182 c -1.543,0 -2.314,1.18 -2.314,3.585 a 4.176,4.176 0 0 0 0.59,2.587 1.961,1.961 0 0 0 1.724,0.771 2.662,2.662 0 0 0 1.044,-0.182 9.3,9.3 0 0 0 1.135,-0.59 l 1.271,1.815001 a 5.421,5.421 0 0 1 -3.585,1.271 5.616,5.616 0 0 1 -2.814,-0.681 4.568,4.568 0 0 1 -1.815,-2 6.987,6.987 0 0 1 -0.635,-3.041 7.133,7.133 0 0 1 0.635,-3.041001 4.807,4.807 0 0 1 1.814,-2.082 5.756,5.756 0 0 1 2.723,-0.681 z"
       style="fill:#ffffff" />
  </g>
</svg>
