<?xml version="1.0" encoding="UTF-8" standalone="no"?>
<svg
   height="281.09601"
   viewBox="0 0 319.99968 281.09601"
   width="319.99969"
   version="1.1"
   id="svg858"
   sodipodi:docname="eslint.svg"
   inkscape:version="1.1.1 (3bf5ae0d25, 2021-09-20, custom)"
   xmlns:inkscape="http://www.inkscape.org/namespaces/inkscape"
   xmlns:sodipodi="http://sodipodi.sourceforge.net/DTD/sodipodi-0.dtd"
   xmlns="http://www.w3.org/2000/svg"
   xmlns:svg="http://www.w3.org/2000/svg">
  <defs
     id="defs862" />
  <sodipodi:namedview
     id="namedview860"
     pagecolor="#ffffff"
     bordercolor="#666666"
     borderopacity="1.0"
     inkscape:pageshadow="2"
     inkscape:pageopacity="0.0"
     inkscape:pagecheckerboard="0"
     showgrid="false"
     fit-margin-top="0"
     fit-margin-left="0"
     fit-margin-right="0"
     fit-margin-bottom="0"
     inkscape:zoom="2.9639138"
     inkscape:cx="272.44382"
     inkscape:cy="156.71846"
     inkscape:window-width="1920"
     inkscape:window-height="1048"
     inkscape:window-x="0"
     inkscape:window-y="32"
     inkscape:window-maximized="1"
     inkscape:current-layer="g1157" />
  <g
     id="g1157"
     transform="translate(112.76501,16.050458)"
     style="fill:#000000">
    <path
       d="M -16.000846,86.254682 44.77613,51.16537 c 1.52093,-0.878425 3.39574,-0.878425 4.91667,0 l 60.77823,35.089312 c 1.51967,0.87843 2.45833,2.501 2.45833,4.25785 v 70.178638 c 0,1.75559 -0.93866,3.37942 -2.45833,4.2591 L 49.6928,200.03959 c -1.52093,0.87842 -3.39574,0.87842 -4.91667,0 l -60.776976,-35.08932 c -1.52093,-0.87842 -2.458335,-2.50225 -2.458335,-4.2591 V 90.512532 c 0.0013,-1.75685 0.93866,-3.37942 2.458335,-4.25785"
       fill="#8080f2"
       id="path946"
       style="fill:#ffffff;stroke-width:1.25489;opacity:0.5" />
    <path
       d="M 205.2556,118.21932 132.63871,-8.1132604 c -2.63779,-4.5678096 -7.51054,-7.9371976 -12.78485,-7.9371976 H -25.382425 c -5.27557,0 -10.149574,3.369388 -12.787359,7.9371976 L -110.78667,117.94073 c -2.63779,4.56906 -2.63779,10.3353 0,14.90436 l 72.616886,125.29729 c 2.637785,4.56781 7.511789,6.90317 12.787359,6.90317 H 119.8526 c 5.27432,0 10.14832,-2.26508 12.78485,-6.83415 l 72.61689,-125.50184 c 2.6403,-4.56655 2.6403,-9.92243 10e-4,-14.49024 m -60.13071,60.74936 c 0,1.85724 -1.11811,3.57519 -2.72813,4.50507 l -92.49816,53.36683 c -1.60877,0.92862 -3.62413,0.92862 -5.2329,0 l -92.569428,-53.36683 c -1.608773,-0.92988 -2.734412,-2.64657 -2.734412,-4.50507 V 72.233767 c 0,-1.858496 1.109326,-3.57519 2.719353,-4.505065 L 44.57534,14.361871 c 1.60878,-0.929875 3.62163,-0.929875 5.2304,0 l 92.57596,53.366831 c 1.61002,0.929875 2.74319,2.646569 2.74319,4.505065 z"
       fill="#4b32c3"
       id="path948"
       style="fill:#ffffff;stroke-width:1.25489" />
  </g>
</svg>
