<?xml version="1.0" encoding="UTF-8" standalone="no"?>
<svg
   width="791.0061"
   height="616.91309"
   viewBox="0 0 161.99805 126.26381"
   version="1.1"
   id="svg2151"
   sodipodi:docname="express.svg"
   inkscape:version="1.1.1 (3bf5ae0d25, 2021-09-20, custom)"
   xmlns:inkscape="http://www.inkscape.org/namespaces/inkscape"
   xmlns:sodipodi="http://sodipodi.sourceforge.net/DTD/sodipodi-0.dtd"
   xmlns="http://www.w3.org/2000/svg"
   xmlns:svg="http://www.w3.org/2000/svg">
  <defs
     id="defs2155" />
  <sodipodi:namedview
     id="namedview2153"
     pagecolor="#ffffff"
     bordercolor="#666666"
     borderopacity="1.0"
     inkscape:pageshadow="2"
     inkscape:pageopacity="0.0"
     inkscape:pagecheckerboard="0"
     showgrid="false"
     fit-margin-top="0"
     fit-margin-left="0"
     fit-margin-right="0"
     fit-margin-bottom="0"
     inkscape:zoom="0.35355339"
     inkscape:cx="1271.378"
     inkscape:cy="271.529"
     inkscape:window-width="1920"
     inkscape:window-height="1048"
     inkscape:window-x="0"
     inkscape:window-y="32"
     inkscape:window-maximized="1"
     inkscape:current-layer="svg2151" />
  <path
     id="path2149"
     d="m 4.444445e-8,0.37254624 c -9.9999999e-8,41.97786476 0,83.95572876 0,125.93359376 C 29.213541,126.30551 58.427083,126.30514 87.640625,126.30414 97.755792,113.14393 107.87111,99.983833 117.98633,86.823668 c 10.17042,13.160274 20.34206,26.319602 30.51172,39.480472 4.5,0 9,0 13.5,0 -12.4021,-16.00881 -24.80332,-32.018285 -37.20508,-48.027347 11.36637,-14.998174 22.73409,-29.995329 34.09961,-44.994141 -8.22526,0 -16.45052,0 -24.67578,0 2.65545,1.52631 5.31121,3.052063 7.9668,4.578125 -8.05339,10.600261 -16.10677,21.200521 -24.16016,31.800782 -9.0045,-12.12569 -18.00942,-24.251075 -27.013675,-36.376954 -4.526041,0 -9.052083,0 -13.578125,0 11.312453,14.99124 22.62219,29.984533 33.9336,44.976563 -9.60222,12.453125 -19.204433,24.906252 -28.806646,37.359372 -23.947888,-0.0486 -47.895832,-0.0289 -71.84375,-0.0293 0,-16.532546 0,-33.065098 0,-49.59765 23.714843,0 47.429687,0 71.144531,0 0,-3.572266 0,-7.144531 0,-10.716797 -23.714844,0 -47.429688,0 -71.144531,0 0,-14.866537 0,-29.733073 0,-44.599609 25.214192,0 50.428385,0 75.642578,0 0,-3.5716149 0,-7.1432294 0,-10.71484396 -28.785808,-1e-7 -57.571615,0 -86.357421955555565,0 -1e-7,0.1367187 0,0.2734375 0,0.4101562 z"
     style="fill:#ffffff" />
</svg>
