<?xml version="1.0" encoding="UTF-8" standalone="no"?>
<svg
   width="351.10001"
   height="351.10001"
   fill="none"
   version="1.1"
   viewBox="0 0 351.10001 351.10001"
   id="svg2819"
   xmlns="http://www.w3.org/2000/svg"
   xmlns:svg="http://www.w3.org/2000/svg"
   xmlns:rdf="http://www.w3.org/1999/02/22-rdf-syntax-ns#"
   xmlns:cc="http://creativecommons.org/ns#"
   xmlns:dc="http://purl.org/dc/elements/1.1/">
  <defs
     id="defs2823">
	
	
	
	
	
	
	
	
	
	
	
	
	
	
	

		
	
		
	
		
	
		
	
		
	
		
	
		
	
		
	
		
	
			
				
		
			
		
			
		
			
				
		
			
				
		
			
				
		
			
		
			
				
		
			
				
		</defs>
  <title
     id="title2813">TypeScript logo</title>
  <metadata
     id="metadata2825">
    <rdf:RDF>
      <cc:Work
         rdf:about="">
        <dc:title>TypeScript logo</dc:title>
      </cc:Work>
    </rdf:RDF>
  </metadata>
  <path
     id="rect1236"
     style="fill:#ffffff;stroke-width:0.896558"
     d="M 175.55078 0 C 158.24682 -7.1054274e-15 144.25977 13.987057 144.25977 31.291016 C 144.25977 34.383396 144.71243 37.365953 145.54492 40.185547 L 73.318359 81.886719 C 71.292942 79.748018 68.936738 77.854851 66.257812 76.298828 C 51.284957 67.691677 32.097385 72.802536 23.490234 87.775391 C 14.883084 102.74825 19.993942 121.93387 34.966797 130.54102 C 37.639497 132.07742 40.44759 133.16937 43.304688 133.85352 L 43.304688 217.26758 C 40.480421 217.95307 37.703389 219.03711 35.056641 220.55859 C 20.083785 229.2554 14.972928 248.35136 23.580078 263.32422 C 32.187229 278.29707 51.285143 283.40793 66.347656 274.80078 C 68.997705 273.26153 71.331011 271.39156 73.341797 269.28125 L 145.5332 310.96094 C 144.70946 313.76693 144.25977 316.73312 144.25977 319.80859 C 144.25977 337.11255 158.24682 351.09961 175.55078 351.09961 C 192.85474 351.09961 206.83984 337.02289 206.83984 319.80859 C 206.83984 316.36159 206.27765 313.05056 205.25195 309.95117 L 277.02148 268.51562 C 279.18993 270.9506 281.77352 273.0875 284.75391 274.80078 C 299.72677 283.40793 318.91238 278.29707 327.51953 263.32422 C 336.21634 248.35136 331.10549 229.2554 316.04297 220.55859 C 313.39789 219.03807 310.62146 217.95511 307.79492 217.26953 L 307.79492 133.85547 C 310.65263 133.17135 313.45956 132.07774 316.13281 130.54102 C 331.10567 121.84421 336.21652 102.74825 327.60938 87.775391 C 318.91256 72.802536 299.81661 67.691677 284.84375 76.298828 C 282.15017 77.86336 279.78083 79.768734 277.74805 81.921875 L 205.54102 40.232422 C 206.38239 37.399102 206.83984 34.400485 206.83984 31.291016 C 206.83984 13.987057 192.85474 0 175.55078 0 z M 153.04883 53.039062 C 153.33974 53.340017 153.63674 53.634733 153.93945 53.923828 L 59.416016 217.63672 C 59.00883 217.51851 58.599091 217.40832 58.1875 217.30664 L 58.1875 133.7793 C 66.150722 131.79921 73.327801 126.72861 77.732422 119.06641 C 82.131266 111.41425 82.939881 102.68612 80.6875 94.818359 L 153.04883 53.039062 z M 198.01953 53.074219 L 270.39844 94.863281 C 268.16209 102.71927 268.97676 111.42889 273.36719 119.06641 C 277.77181 126.72861 284.94889 131.79921 292.91211 133.7793 L 292.91211 217.29883 C 292.50766 217.39814 292.10525 217.50587 291.70508 217.62109 L 197.18164 53.904297 C 197.46567 53.632542 197.74591 53.356436 198.01953 53.074219 z M 184.28906 61.339844 L 278.78906 225.01562 C 276.67459 227.03173 274.80674 229.37464 273.27734 232.03516 C 271.75682 234.68024 270.67386 237.45667 269.98828 240.2832 L 81.113281 240.2832 C 80.427816 237.4583 79.34408 234.68248 77.822266 232.03516 C 76.28682 229.39166 74.422244 227.06213 72.318359 225.05469 L 166.83789 61.345703 C 169.60371 62.143941 172.52507 62.582031 175.55078 62.582031 C 178.58626 62.582031 181.51534 62.143058 184.28906 61.339844 z M 81.074219 255.16602 L 270.01758 255.16602 C 270.1869 255.85558 270.37246 256.54216 270.58789 257.21875 L 198.68945 298.72852 C 192.97006 292.45302 184.72709 288.51953 175.55078 288.51953 C 166.68967 288.51953 158.70419 292.19296 153.01562 298.0957 L 80.75 256.37305 C 80.865942 255.97265 80.974254 255.57066 81.074219 255.16602 z " />
</svg>
