<?xml version="1.0" encoding="UTF-8" standalone="no"?>
<svg
   viewBox="0 0 213.97 213.13999"
   version="1.1"
   id="svg5390"
   sodipodi:docname="logo.svg"
   width="213.97"
   height="213.14"
   inkscape:version="1.1.1 (3bf5ae0d25, 2021-09-20, custom)"
   xmlns:inkscape="http://www.inkscape.org/namespaces/inkscape"
   xmlns:sodipodi="http://sodipodi.sourceforge.net/DTD/sodipodi-0.dtd"
   xmlns="http://www.w3.org/2000/svg"
   xmlns:svg="http://www.w3.org/2000/svg"
   xmlns:rdf="http://www.w3.org/1999/02/22-rdf-syntax-ns#"
   xmlns:cc="http://creativecommons.org/ns#"
   xmlns:dc="http://purl.org/dc/elements/1.1/">
  <defs
     id="defs5394" />
  <sodipodi:namedview
     id="namedview5392"
     pagecolor="#ffffff"
     bordercolor="#666666"
     borderopacity="1.0"
     inkscape:pageshadow="2"
     inkscape:pageopacity="0.0"
     inkscape:pagecheckerboard="0"
     showgrid="false"
     fit-margin-top="0"
     fit-margin-left="0"
     fit-margin-right="0"
     fit-margin-bottom="0"
     inkscape:zoom="3.9410716"
     inkscape:cx="106.95061"
     inkscape:cy="106.57"
     inkscape:window-width="1920"
     inkscape:window-height="1048"
     inkscape:window-x="0"
     inkscape:window-y="32"
     inkscape:window-maximized="1"
     inkscape:current-layer="Task_management" />
  <title
     id="title5383">Task_management</title>
  <g
     id="Task_management"
     transform="translate(-3.88,-6.749999)">
    <path
       d="M 124.2,85.9 H 73.81 a 2.5,2.5 0 0 1 0,-5 h 47.39 a 70.16,70.16 0 0 1 -3,-7 H 73.81 a 2.5,2.5 0 0 1 0,-5 h 42.85 A 52.17,52.17 0 0 1 115,55.49 53.12,53.12 0 0 1 120.35,31.9 H 26.92 a 7.06,7.06 0 0 0 -7,7.4 V 182.9 H 123 a 10.32,10.32 0 0 1 6.91,2.41 7.79,7.79 0 0 1 1.1,1 l 0.3,0.09 a 10.6,10.6 0 0 1 2.62,6.7 v 11.06 c 0,6.48 4,15.73 9,15.73 v -0.13 a 15.27,15.27 0 0 1 -15,-15.6 v -11.05 a 4.68,4.68 0 0 0 -1.23,-2.9 5,5 0 0 1 -0.57,-0.32 4.65,4.65 0 0 0 -3.13,-1 H 8.4 a 4.24,4.24 0 0 0 -4.52,4.21 v 10.75 a 16,16 0 0 0 15.89,16 h 123.11 a 15.34,15.34 0 0 0 9.81,-3.38 15.84,15.84 0 0 0 6.19,-12.35 v -95.4 A 53.16,53.16 0 0 1 124.2,85.9 Z M 45.46,66.07 a 12.2,12.2 0 0 1 7.31,2.43 l -9,9 -1.62,-1.91 A 2.75,2.75 0 1 0 38,79.12 l 3.55,4.2 a 2.74,2.74 0 0 0 2,1 h 0.11 a 2.79,2.79 0 0 0 2,-0.8 L 56.35,72.7 A 12.26,12.26 0 1 1 45.46,66.07 Z m 0,39 a 12.2,12.2 0 0 1 7.31,2.43 l -9,9 -1.62,-1.92 a 2.75,2.75 0 0 0 -4.2,3.55 l 3.55,4.2 a 2.74,2.74 0 0 0 2,1 h 0.11 a 2.76,2.76 0 0 0 2,-0.81 L 56.4,111.73 A 12.26,12.26 0 1 1 45.51,105.1 Z m 0,63.55 a 12.26,12.26 0 1 1 7.31,-22.09 l -9,9 -1.62,-1.91 a 2.75,2.75 0 1 0 -4.2,3.55 l 3.55,4.2 a 2.74,2.74 0 0 0 2,1 h 0.11 a 2.79,2.79 0 0 0 2,-0.8 L 56.4,150.78 a 12.24,12.24 0 0 1 -10.89,17.89 z m 90.4,-4.74 h -62 a 2.5,2.5 0 0 1 0,-5 h 62 a 2.5,2.5 0 0 1 0,5 z m 0,-12 h -62 a 2.5,2.5 0 0 1 0,-5 h 62 a 2.5,2.5 0 0 1 0,5 z m 0,-27 h -62 a 2.5,2.5 0 0 1 0,-5 h 62 a 2.5,2.5 0 0 1 0,5 z m 2.5,-14.5 a 2.49,2.49 0 0 1 -2.5,2.5 h -62 a 2.5,2.5 0 0 1 0,-5 h 62 a 2.49,2.49 0 0 1 2.5,2.52 z"
       id="path5385"
       style="fill:#ffffff;opacity:1" />
    <path
       d="M 169.12,6.75 A 48.74,48.74 0 1 0 217.85,55.49 48.74,48.74 0 0 0 169.12,6.75 Z m 2.76,55.3 a 0.57,0.57 0 0 1 0,0.13 2.74,2.74 0 0 1 -4.44,2 L 167.35,64.11 153,51.92 v 0 l -1.15,-1 a 2.73,2.73 0 0 1 -0.31,-3.87 2.46,2.46 0 0 1 3.63,-0.32 l 10.76,9.36 V 27.43 a 3,3 0 0 1 6,0 z"
       id="path5387"
       style="opacity:1;fill:#ffffff" />
  </g>
  <metadata
     id="metadata5396">
    <rdf:RDF>
      <cc:Work
         rdf:about="">
        <dc:title>Task_management</dc:title>
      </cc:Work>
    </rdf:RDF>
  </metadata>
</svg>
