<?xml version="1.0" encoding="UTF-8" standalone="no"?>
<svg
   width="257"
   height="257"
   viewBox="0 0 257 257"
   fill="none"
   version="1.1"
   id="svg1704"
   sodipodi:docname="mongodb.svg"
   inkscape:version="1.1.1 (3bf5ae0d25, 2021-09-20, custom)"
   xmlns:inkscape="http://www.inkscape.org/namespaces/inkscape"
   xmlns:sodipodi="http://sodipodi.sourceforge.net/DTD/sodipodi-0.dtd"
   xmlns="http://www.w3.org/2000/svg"
   xmlns:svg="http://www.w3.org/2000/svg">
  <defs
     id="defs1708" />
  <sodipodi:namedview
     id="namedview1706"
     pagecolor="#ffffff"
     bordercolor="#666666"
     borderopacity="1.0"
     inkscape:pageshadow="2"
     inkscape:pageopacity="0.0"
     inkscape:pagecheckerboard="0"
     showgrid="false"
     fit-margin-top="0"
     fit-margin-left="0"
     fit-margin-right="0"
     fit-margin-bottom="0"
     inkscape:zoom="1.4142136"
     inkscape:cx="105.00536"
     inkscape:cy="-3.5355339"
     inkscape:window-width="1920"
     inkscape:window-height="1048"
     inkscape:window-x="0"
     inkscape:window-y="32"
     inkscape:window-maximized="1"
     inkscape:current-layer="svg1704" />
  <path
     d="m 150.82283,28.6444 c -10.7862,-12.7975 -20.0744,-25.79495 -21.9719,-28.49443 -0.1998,-0.19996 -0.4995,-0.19996 -0.6992,0 -1.8976,2.69948 -11.1857,15.69693 -21.972,28.49443 -92.581695,118.0766 14.5815,197.7616 14.5815,197.7616 l 0.8988,0.6 c 0.7989,12.297 2.7964,29.994 2.7964,29.994 h 3.9949 3.9949 c 0,0 1.9975,-17.597 2.7965,-29.994 l 0.8988,-0.7 c 0.0998,0.1 107.2634,-79.585 14.6813,-197.6616 z m -22.3715,195.9616 c 0,0 -4.7938,-4.099 -6.0922,-6.198 v -0.201 l 5.7926,-128.5744 c 0,-0.4 0.5993,-0.4 0.5993,0 l 5.7925,128.5744 v 0.201 c -1.2983,2.099 -6.0922,6.198 -6.0922,6.198 z"
     fill="#001e2b"
     id="path1686"
     style="fill:#ffffff" />
</svg>
