<?xml version="1.0" encoding="UTF-8" standalone="no"?>
<svg
   height="477"
   viewBox="0 0 477 477"
   width="477"
   version="1.1"
   id="svg2002"
   sodipodi:docname="pinia.svg"
   inkscape:version="1.1.1 (3bf5ae0d25, 2021-09-20, custom)"
   xmlns:inkscape="http://www.inkscape.org/namespaces/inkscape"
   xmlns:sodipodi="http://sodipodi.sourceforge.net/DTD/sodipodi-0.dtd"
   xmlns:xlink="http://www.w3.org/1999/xlink"
   xmlns="http://www.w3.org/2000/svg"
   xmlns:svg="http://www.w3.org/2000/svg">
  <defs
     id="defs2006" />
  <sodipodi:namedview
     id="namedview2004"
     pagecolor="#ffffff"
     bordercolor="#666666"
     borderopacity="1.0"
     inkscape:pageshadow="2"
     inkscape:pageopacity="0.0"
     inkscape:pagecheckerboard="0"
     showgrid="false"
     inkscape:zoom="1.7743357"
     inkscape:cx="159.49631"
     inkscape:cy="238.68087"
     inkscape:window-width="1920"
     inkscape:window-height="1048"
     inkscape:window-x="0"
     inkscape:window-y="32"
     inkscape:window-maximized="1"
     inkscape:current-layer="g6111" />
  <linearGradient
     id="a">
    <stop
       offset="0"
       stop-color="#52ce63"
       id="stop1931" />
    <stop
       offset="1"
       stop-color="#51a256"
       id="stop1933" />
  </linearGradient>
  <linearGradient
     id="b"
     x1="153.55664"
     x2="134.59957"
     xlink:href="#a"
     y1="47.287311"
     y2="112.16116"
     gradientTransform="scale(0.76797326,1.3021287)"
     gradientUnits="userSpaceOnUse" />
  <linearGradient
     id="c"
     x1="355.58672"
     x2="336.60062"
     xlink:href="#a"
     y1="47.301656"
     y2="112.19507"
     gradientTransform="scale(0.76820916,1.3017288)"
     gradientUnits="userSpaceOnUse" />
  <linearGradient
     id="d"
     x1="271.9921"
     x2="271.9921"
     y1="0.605128"
     y2="88.326584"
     gradientTransform="scale(0.69054461,1.4481324)"
     gradientUnits="userSpaceOnUse">
    <stop
       offset="0"
       stop-color="#8ae99c"
       id="stop1938" />
    <stop
       offset="1"
       stop-color="#52ce63"
       id="stop1940" />
  </linearGradient>
  <linearGradient
     id="e"
     x1="198.42117"
     x2="176.91509"
     y1="215.04148"
     y2="476.32004"
     gradientTransform="matrix(0.95073861,0,0,1.0518138,45.195206,-24.38272)"
     gradientUnits="userSpaceOnUse">
    <stop
       offset="0"
       stop-color="#ffe56c"
       id="stop1943" />
    <stop
       offset="1"
       stop-color="#ffc63a"
       id="stop1945" />
  </linearGradient>
  <g
     id="g6111"
     style="fill:#000000">
    <g
       id="g5064"
       style="fill:#ffffff">
      <path
         style="opacity:0.5;fill:#ffffff;fill-rule:evenodd"
         d="m 229.66868,476.61728 c 83.11886,0 150.52653,-24.14515 150.52653,-133.64515 0,-109.5 -67.40767,-199.35485 -150.52653,-199.35485 -83.11885,0 -150.473474,89.85485 -150.473474,199.35485 0,109.5 67.354624,133.64515 150.473474,133.64515 z"
         id="path1956" />
      <path
         id="path1948"
         style="fill:#ffffff;fill-rule:evenodd"
         d="M 264.73828,0.41210938 C 251.16681,1.712465 214.00939,45.445188 202.44141,96.986328 171.56749,65.859406 128.21832,55.559098 118.95508,64.384766 c -10.63973,10.137119 -13.2492,80.698454 13.2207,126.988284 26.26203,-29.71293 60.28477,-47.75586 97.49219,-47.75586 48.38427,0 91.41538,30.48122 118.95508,77.52734 C 387.68109,183.34188 403.85693,111.93845 395.7793,99.203125 388.73382,88.095128 341.35503,87.126165 303.12891,111.64453 305.37804,56.353402 278.53552,1.9619678 265.97656,0.41992188 c -0.38705,-0.047524 -0.80049,-0.0497595 -1.23828,-0.007813 z" />
    </g>
    <ellipse
       cx="305.69522"
       cy="310.61728"
       fill="#eaadcc"
       rx="21.5"
       ry="10"
       id="ellipse1958"
       style="fill-rule:evenodd;fill:#ffffff" />
    <ellipse
       cx="183.71782"
       cy="284.3472"
       fill="#eaadcc"
       rx="21.5"
       ry="10"
       transform="rotate(6.9999998)"
       id="ellipse1960"
       style="fill-rule:evenodd;fill:#ffffff" />
    <path
       style="color:#000000;fill:#ffffff;fill-rule:evenodd;stroke-linecap:round;stroke-linejoin:round;-inkscape-stroke:none"
       d="m 200.49414,300.46875 a 3,3 0 0 0 -0.81055,4.16406 c 4.5852,6.80375 11.87098,10.81667 20.9961,11.85938 9.17106,1.04794 17.61588,-1.36776 24.65429,-7.08789 a 3,3 0 0 0 0.4375,-4.22071 3,3 0 0 0 -4.2207,-0.43554 c -5.90333,4.79765 -12.40629,6.67255 -20.18945,5.7832 -7.82911,-0.89461 -13.10895,-3.91873 -16.70313,-9.25195 a 3,3 0 0 0 -4.16406,-0.81055 z"
       id="path5452" />
    <path
       d="m 161.30673,273.00668 c -0.1349,-3.86319 -3.37774,-6.88631 -7.23944,-6.75146 -3.86405,0.13494 -6.88694,3.37686 -6.75203,7.24005 0.13491,3.8632 3.37658,6.88636 7.24062,6.75142 3.86166,-0.13602 6.88576,-3.37682 6.75085,-7.24001 z"
       fill="#ffffff"
       id="path1966"
       style="fill:#ffffff;fill-rule:evenodd" />
    <g
       id="path1970"
       style="fill:#ffffff">
      <path
         style="color:#000000;fill:#ffffff;stroke-width:3;-inkscape-stroke:none"
         d="m 179.4179,275.8758 c 0.35662,10.21229 -7.63221,18.77836 -17.84419,19.13497 -10.21087,0.35657 -18.77665,-7.63139 -19.13328,-17.84369 -0.35658,-10.21118 7.63113,-18.7772 17.84199,-19.13377 10.21199,-0.35661 18.77889,7.63131 19.13548,17.84249 z m 5.99634,-0.2094 c -0.47223,-13.52295 -11.81763,-24.10169 -25.34121,-23.62944 -13.5226,0.47222 -24.10117,11.81669 -23.62894,25.33951 0.47226,13.52372 11.81619,24.10287 25.33901,23.63064 13.52382,-0.47226 24.1034,-11.81687 23.63114,-25.34071 z"
         id="path6040" />
      <path
         style="color:#000000;fill:#ffffff;-inkscape-stroke:none"
         d="m 160.02148,250.53711 c -14.33271,0.50051 -25.57669,12.55968 -25.07617,26.89258 0.50055,14.33372 12.55769,25.57669 26.89063,25.07617 14.33386,-0.50055 25.57867,-12.55865 25.07812,-26.89258 -0.50052,-14.33311 -12.55895,-25.57671 -26.89258,-25.07617 z m 0.10352,2.99805 c 12.71351,-0.44397 23.34708,9.47083 23.79102,22.18359 0.44397,12.71372 -9.47181,23.34509 -22.18555,23.78906 -12.71268,0.44394 -23.34314,-9.4699 -23.78711,-22.18359 -0.44394,-12.71272 9.46918,-23.34513 22.18164,-23.78906 z m 0.10547,3 c -11.02096,0.38486 -19.67393,9.66236 -19.28906,20.68359 0.38491,11.02226 9.66457,19.67587 20.68554,19.29102 11.022,-0.3849 19.67397,-9.66319 19.28907,-20.68555 -0.38489,-11.02134 -9.66355,-19.67396 -20.68555,-19.28906 z m 0.10351,2.99804 c 9.40196,-0.32832 17.25569,6.99354 17.58399,16.39453 0.32833,9.4022 -6.99454,17.25567 -16.39649,17.58399 -9.40074,0.32828 -17.25368,-6.99417 -17.58203,-16.39649 -0.32829,-9.4011 6.9938,-17.25375 16.39453,-17.58203 z"
         id="path6037" />
    </g>
    <g
       id="path1972"
       style="fill:#ffffff">
      <path
         style="color:#000000;fill:#ffffff;stroke-width:3;-inkscape-stroke:none"
         d="m 309.6877,281.33277 c 0.35662,10.2123 -7.63108,18.77832 -17.84307,19.13493 -10.21087,0.35657 -18.77777,-7.63135 -19.13439,-17.84365 -0.35658,-10.21117 7.63224,-18.77724 17.84311,-19.13381 10.21199,-0.35661 18.77777,7.63135 19.13435,17.84253 z m 5.99634,-0.2094 c -0.47223,-13.52305 -11.8166,-24.10172 -25.34009,-23.62947 -13.5227,0.47222 -24.10228,11.81683 -23.63006,25.33955 0.47226,13.52361 11.81721,24.10283 25.34014,23.6306 13.52371,-0.47226 24.10228,-11.81673 23.63001,-25.34068 z"
         id="path6034" />
      <path
         style="color:#000000;fill:#ffffff;-inkscape-stroke:none"
         d="m 290.29102,255.99414 c -14.33282,0.50051 -25.57669,12.5597 -25.07618,26.89258 0.50055,14.33369 12.55758,25.57669 26.89063,25.07617 14.33375,-0.50055 25.57868,-12.55862 25.07812,-26.89258 -0.50051,-14.33313 -12.55904,-25.57671 -26.89257,-25.07617 z m 0.10546,2.99805 c 12.71343,-0.44396 23.34513,9.47065 23.78907,22.18359 0.44398,12.71392 -9.46996,23.34509 -22.1836,23.78906 -12.71278,0.44394 -23.34509,-9.47009 -23.78906,-22.18359 -0.44393,-12.71254 9.47104,-23.34513 22.18359,-23.78906 z m 0.10547,2.99804 c -11.02097,0.38486 -19.67588,9.66422 -19.29101,20.68555 0.38491,11.02237 9.66457,19.67588 20.68554,19.29102 11.02201,-0.3849 19.67592,-9.66329 19.29102,-20.68555 -0.38487,-11.02123 -9.66354,-19.67591 -20.68555,-19.29102 z m 0.10352,3 c 9.40196,-0.32832 17.25569,6.99343 17.58398,16.39454 0.32834,9.40231 -6.99452,17.25566 -16.39648,17.58398 -9.40075,0.32828 -17.25565,-6.99428 -17.58399,-16.39648 -0.32828,-9.40099 6.99574,-17.25376 16.39649,-17.58204 z"
         id="path6031" />
    </g>
    <path
       d="m 291.57653,278.46365 c -0.1349,-3.86319 -3.37683,-6.88634 -7.24003,-6.75144 -3.86319,0.13491 -6.88634,3.37684 -6.75144,7.24004 0.13491,3.86319 3.37684,6.88634 7.24004,6.75144 3.86319,-0.13491 6.88634,-3.37684 6.75143,-7.24004 z"
       id="path1974"
       style="fill:#ffffff;fill-rule:evenodd" />
  </g>
</svg>
