<?xml version="1.0" encoding="UTF-8" standalone="no"?>
<svg
   width="918"
   height="918"
   viewBox="0 0 918 917.99999"
   fill="none"
   version="1.1"
   id="svg3126"
   sodipodi:docname="tailwindcss.svg"
   inkscape:version="1.1.1 (3bf5ae0d25, 2021-09-20, custom)"
   xmlns:inkscape="http://www.inkscape.org/namespaces/inkscape"
   xmlns:sodipodi="http://sodipodi.sourceforge.net/DTD/sodipodi-0.dtd"
   xmlns="http://www.w3.org/2000/svg"
   xmlns:svg="http://www.w3.org/2000/svg">
  <defs
     id="defs3130" />
  <sodipodi:namedview
     id="namedview3128"
     pagecolor="#ffffff"
     bordercolor="#666666"
     borderopacity="1.0"
     inkscape:pageshadow="2"
     inkscape:pageopacity="0.0"
     inkscape:pagecheckerboard="0"
     showgrid="false"
     fit-margin-top="0"
     fit-margin-left="0"
     fit-margin-right="0"
     fit-margin-bottom="0"
     inkscape:zoom="1.2363834"
     inkscape:cx="459"
     inkscape:cy="275.80441"
     inkscape:window-width="1920"
     inkscape:window-height="1048"
     inkscape:window-x="0"
     inkscape:window-y="32"
     inkscape:window-maximized="1"
     inkscape:current-layer="svg3126" />
  <g
     id="g3323"
     transform="translate(-40.5,-42.933797)">
    <path
       d="M 489.5,226.499 C 328,231.632 280,346.999 269,409.499 283.333,386.332 328.5,335.5 395,335.5 c 77.5,0 136.5,86.5 172.5,113.5 43.737,32.803 131.623,76.115 247,41 92,-28 134.667,-125.668 144,-172.001 -44.5,60.5 -112,96.839 -195.5,54 C 705.5,342.499 662.5,221 489.5,226.499 Z"
       fill="#07B6D5"
       id="path3122"
       style="fill:#ffffff" />
    <path
       d="M 261,500.999 C 99.5,506.132 51.5,621.499 40.5,683.999 54.8333,660.832 100,610 166.5,610 244,610 303,696.5 339,723.5 c 43.737,32.803 131.623,76.115 247,41 92,-28 134.667,-125.668 144,-172.001 -44.5,60.5 -112,96.839 -195.5,54 C 477,616.999 434,495.5 261,500.999 Z"
       fill="#07B6D5"
       id="path3124"
       style="fill:#ffffff" />
  </g>
</svg>
