<?xml version="1.0" encoding="UTF-8" standalone="no"?>
<svg
   width="351.10001"
   height="351.10001"
   fill="none"
   version="1.1"
   viewBox="0 0 351.10001 351.10001"
   id="svg2819"
   sodipodi:docname="typescript.svg"
   inkscape:version="1.1.1 (3bf5ae0d25, 2021-09-20, custom)"
   xmlns:inkscape="http://www.inkscape.org/namespaces/inkscape"
   xmlns:sodipodi="http://sodipodi.sourceforge.net/DTD/sodipodi-0.dtd"
   xmlns="http://www.w3.org/2000/svg"
   xmlns:svg="http://www.w3.org/2000/svg"
   xmlns:rdf="http://www.w3.org/1999/02/22-rdf-syntax-ns#"
   xmlns:cc="http://creativecommons.org/ns#"
   xmlns:dc="http://purl.org/dc/elements/1.1/">
  <defs
     id="defs2823" />
  <sodipodi:namedview
     id="namedview2821"
     pagecolor="#ffffff"
     bordercolor="#666666"
     borderopacity="1.0"
     inkscape:pageshadow="2"
     inkscape:pageopacity="0.0"
     inkscape:pagecheckerboard="0"
     showgrid="false"
     fit-margin-top="0"
     fit-margin-left="0"
     fit-margin-right="0"
     fit-margin-bottom="0"
     inkscape:zoom="1.640625"
     inkscape:cx="183.1619"
     inkscape:cy="150.55238"
     inkscape:window-width="1920"
     inkscape:window-height="1048"
     inkscape:window-x="0"
     inkscape:window-y="32"
     inkscape:window-maximized="1"
     inkscape:current-layer="svg2819" />
  <title
     id="title2813">TypeScript logo</title>
  <path
     d="m 199,229.08 v 50 c 8.1,4.2 18,7.3 29,9.4 11,2.1 23,3.1 35,3.1 12,0 23,-1.1 34,-3.4 11,-2.3 20,-6.1 28,-11 8.1,-5.3 15,-12 19,-21 4,-9 7.1,-19 7.1,-32 0,-9.1 -1.4,-17 -4.1,-24 -2.7,-7 -6.6,-13 -12,-18 -5.1,-5.3 -11,-10 -18,-14 -7,-4 -15,-8.2 -24,-12 -6.6,-2.7 -12,-5.3 -18,-7.9 -5.2,-2.6 -9.7,-5.2 -13,-7.8 -3.7,-2.7 -6.5,-5.5 -8.5,-8.4 -2,-3 -3,-6.3 -3,-10 0,-3.4 0.89,-6.5 2.7,-9.3 1.81,-2.8 4.3,-5.1 7.5,-7.1 3.2,-2 7.2,-3.5 12,-4.6 4.7,-1.099997 9.9,-1.599997 16,-1.599997 4.2,0 8.6,0.31 13,0.939997 4.6,0.63 9.3,1.6 14,2.9 4.7,1.3 9.3,2.9 14,4.9 4.4,2 8.5,4.3 12,6.9 V 68.120003 c -7.6,-2.9 -16,-5.1 -25,-6.5 -9,-1.4 -19,-2.1 -31,-2.1 -12,0 -23,1.3 -34,3.8 -11,2.5 -20,6.5 -28,12 -8.1,5.4 -14,12 -19,21 -4.7,8.399997 -7,17.999997 -7,29.999997 0,15 4.3,28 13,38 8.6,11 22,19 39,27 6.9,2.8 13,5.6 19,8.3 6,2.7 11,5.5 15,8.4 4.3,2.9 7.7,6.1 10,9.5 2.5,3.4 3.8,7.4 3.8,12 0,3.2 -0.78,6.2 -2.3,9 -1.52,2.8 -3.9,5.2 -7.1,7.2 -3.2,2 -7.1,3.6 -12,4.8 -4.7,1.1 -10,1.7 -17,1.7 -11,0 -22,-1.9 -32,-5.7 -11,-3.8 -21,-9.5 -30,-17 z m -84,-123 h 64 V 65.080003 H 3.0517578e-6 V 106.08 H 64.000001 v 183 H 115 Z"
     clip-rule="evenodd"
     fill="#fff"
     fill-rule="evenodd"
     style="fill:#ffffff"
     id="path2817" />
  <metadata
     id="metadata2825">
    <rdf:RDF>
      <cc:Work
         rdf:about="">
        <dc:title>TypeScript logo</dc:title>
      </cc:Work>
    </rdf:RDF>
  </metadata>
</svg>
